<svg id="svg" version="1.1" xmlns="http://www.w3.org/2000/svg" xmlns:xlink="http://www.w3.org/1999/xlink" width="400" height="281.9047619047619" viewBox="0, 0, 400,281.9047619047619"><g id="svgg"><path id="path0" d="M86.178 19.726 C 82.166 20.871,80.190 22.723,78.783 26.657 C 78.162 28.395,77.808 229.598,78.420 233.427 C 78.820 235.934,79.900 238.148,81.462 239.667 C 83.302 241.455,84.434 241.887,90.550 243.133 C 91.403 243.307,93.371 243.713,94.922 244.036 C 96.474 244.358,98.315 244.720,99.013 244.839 C 100.203 245.043,102.532 245.507,109.309 246.890 C 110.860 247.207,112.638 247.564,113.258 247.683 C 115.221 248.061,119.139 248.847,120.310 249.098 C 121.943 249.449,123.961 249.855,126.375 250.319 C 127.539 250.542,130.205 251.068,132.299 251.487 C 134.394 251.905,136.615 252.349,137.236 252.472 C 137.856 252.595,139.443 252.911,140.762 253.173 C 142.080 253.436,143.667 253.749,144.288 253.868 C 144.908 253.988,146.685 254.344,148.237 254.659 C 149.788 254.975,151.439 255.310,151.904 255.402 C 157.403 256.499,157.541 256.528,160.367 257.132 C 161.293 257.331,166.384 258.318,168.406 258.691 C 169.104 258.820,171.897 259.374,174.612 259.924 C 177.327 260.473,180.247 261.060,181.100 261.230 C 181.953 261.399,183.096 261.649,183.639 261.785 C 195.323 264.717,200.450 260.245,199.847 247.647 C 199.716 244.911,199.750 243.344,199.950 242.971 C 200.246 242.418,200.573 242.411,225.019 242.457 C 238.642 242.482,250.702 242.401,251.818 242.276 C 256.407 241.763,259.543 238.887,260.544 234.274 C 261.083 231.789,261.080 172.435,260.540 169.923 C 259.794 166.446,257.939 164.000,255.082 162.726 C 254.343 162.397,253.517 162.016,253.248 161.882 C 252.978 161.747,251.963 161.638,250.991 161.640 C 247.051 161.649,243.647 163.810,241.869 167.431 L 241.044 169.111 240.903 195.769 L 240.762 222.426 220.381 222.498 C 209.171 222.538,199.984 222.475,199.966 222.357 C 199.947 222.240,199.904 185.522,199.870 140.762 C 199.836 96.001,199.708 58.708,199.584 57.887 C 199.067 54.446,196.005 51.206,192.198 50.071 C 188.975 49.110,183.205 47.353,182.511 47.120 C 182.123 46.991,181.044 46.668,180.113 46.404 C 178.392 45.916,177.011 45.511,175.740 45.121 C 175.353 45.002,173.956 44.581,172.638 44.186 C 171.319 43.791,169.224 43.156,167.983 42.775 C 166.742 42.395,164.140 41.616,162.200 41.045 C 155.563 39.090,153.237 39.200,199.304 39.280 L 240.762 39.351 240.914 66.008 C 240.997 80.670,241.176 92.983,241.311 93.371 C 244.684 103.059,258.368 101.969,260.544 91.838 C 261.039 89.533,261.102 30.800,260.612 27.950 C 259.837 23.434,256.976 20.457,252.487 19.494 C 249.729 18.903,88.275 19.128,86.178 19.726 M278.420 90.938 C 273.979 92.417,271.526 95.864,271.553 100.588 C 271.575 104.492,271.942 105.035,280.054 113.188 C 283.887 117.041,287.024 120.347,287.024 120.534 C 287.024 120.797,280.296 120.907,257.546 121.016 C 241.333 121.093,227.814 121.263,227.504 121.394 C 225.915 122.061,225.432 122.337,224.331 123.208 C 217.900 128.291,220.155 138.365,228.209 140.525 C 228.783 140.679,241.260 140.825,258.045 140.875 C 273.912 140.923,286.979 141.046,287.082 141.149 C 287.186 141.252,284.155 144.476,280.348 148.313 C 272.951 155.767,272.070 156.916,271.622 159.703 C 270.288 167.988,278.991 174.117,286.205 169.973 C 288.046 168.915,319.207 137.765,320.289 135.901 C 322.066 132.837,322.050 128.943,320.247 125.811 C 319.812 125.057,312.974 118.012,303.406 108.463 C 287.436 92.522,286.915 92.051,283.978 90.868 C 282.979 90.465,279.716 90.507,278.420 90.938 " stroke="none" fill="#040404" fill-rule="evenodd"></path><path id="path1" d="M0.000 141.044 L 0.000 282.087 200.000 282.087 L 400.000 282.087 400.000 141.044 L 400.000 0.000 200.000 0.000 L 0.000 0.000 0.000 141.044 M253.173 19.182 C 253.269 19.337,253.626 19.465,253.966 19.467 C 256.129 19.476,259.472 22.732,260.663 25.991 C 261.323 27.797,261.539 89.264,260.896 92.299 C 258.595 103.158,243.568 103.355,240.772 92.564 C 240.398 91.120,240.339 87.406,240.339 65.333 L 240.339 39.774 200.212 39.779 C 174.201 39.781,160.233 39.879,160.508 40.056 C 160.740 40.207,161.209 40.332,161.549 40.334 C 161.889 40.337,162.245 40.465,162.341 40.621 C 162.437 40.776,162.770 40.903,163.081 40.903 C 163.717 40.903,166.315 41.652,167.062 42.051 C 167.332 42.195,167.720 42.313,167.924 42.313 C 168.128 42.313,169.622 42.742,171.242 43.265 C 172.863 43.789,174.951 44.442,175.882 44.716 C 176.812 44.990,178.336 45.439,179.267 45.715 C 180.197 45.990,181.721 46.430,182.652 46.692 C 183.583 46.954,185.233 47.455,186.319 47.807 C 189.709 48.904,191.306 49.365,191.715 49.365 C 191.932 49.365,192.330 49.472,192.599 49.602 C 192.868 49.732,193.817 50.190,194.706 50.621 C 197.185 51.821,198.929 54.011,199.972 57.235 C 200.195 57.924,200.282 81.303,200.282 140.099 L 200.282 222.003 220.310 222.003 L 240.339 222.003 240.342 196.403 C 240.345 175.508,240.417 170.545,240.735 169.394 C 243.746 158.489,258.580 158.551,260.896 169.478 C 261.440 172.043,261.327 233.923,260.775 235.506 C 259.876 238.088,257.920 240.540,255.853 241.675 C 253.497 242.969,253.491 242.969,226.234 242.994 L 200.423 243.018 200.276 249.083 C 200.194 252.419,200.022 255.402,199.892 255.712 C 198.244 259.661,196.495 261.496,193.220 262.712 C 191.834 263.227,188.496 263.352,187.137 262.939 C 186.687 262.803,185.113 262.477,183.639 262.216 C 182.165 261.954,180.451 261.630,179.831 261.495 C 179.210 261.360,177.496 261.036,176.023 260.775 C 174.549 260.514,173.089 260.197,172.779 260.071 C 172.468 259.944,171.834 259.782,171.368 259.710 C 170.903 259.638,169.443 259.364,168.124 259.100 C 164.537 258.384,163.121 258.105,160.790 257.655 C 159.626 257.431,158.166 257.136,157.546 257.000 C 156.925 256.864,155.275 256.540,153.879 256.280 C 152.482 256.020,150.832 255.705,150.212 255.579 C 149.591 255.454,148.068 255.149,146.827 254.902 C 145.585 254.655,143.999 254.324,143.300 254.165 C 142.602 254.007,141.396 253.750,140.621 253.594 C 136.324 252.731,134.829 252.440,133.427 252.196 C 131.209 251.808,127.026 250.969,122.849 250.075 C 119.859 249.435,118.814 249.226,115.797 248.664 C 114.401 248.404,112.719 248.075,112.059 247.932 C 109.472 247.372,108.382 247.162,106.347 246.830 C 105.183 246.640,104.011 246.371,103.741 246.233 C 103.472 246.094,102.964 245.979,102.613 245.977 C 102.055 245.973,99.953 245.564,95.346 244.561 C 94.123 244.296,90.756 243.616,88.999 243.280 C 82.184 241.978,79.243 239.651,78.150 234.697 C 77.733 232.807,77.753 29.572,78.171 27.588 C 79.065 23.336,81.752 20.449,85.896 19.289 C 87.401 18.868,252.914 18.762,253.173 19.182 M283.921 90.417 C 284.697 90.650,285.776 91.044,286.319 91.291 C 287.827 91.978,318.802 122.944,320.284 125.247 C 322.512 128.708,322.716 132.334,320.889 135.966 C 320.018 137.696,287.830 169.706,286.178 170.485 C 276.713 174.950,267.459 165.795,272.152 156.608 C 272.719 155.497,274.720 153.309,279.824 148.216 L 286.729 141.326 258.362 141.326 C 225.180 141.326,226.633 141.450,223.358 138.346 C 220.731 135.856,219.265 130.427,220.533 127.881 C 220.675 127.596,221.095 126.755,221.467 126.013 C 222.757 123.436,225.014 121.629,227.867 120.890 C 229.344 120.507,233.194 120.451,258.093 120.451 L 286.627 120.451 280.067 113.893 C 272.609 106.435,271.906 105.536,271.202 102.550 C 269.460 95.161,276.710 88.245,283.921 90.417 " stroke="none" fill="#f3f3f3" fill-rule="evenodd"></path><path id="path2" d="M88.941 19.110 C 90.150 19.163,92.055 19.162,93.172 19.109 C 94.290 19.056,93.300 19.012,90.973 19.013 C 88.646 19.013,87.731 19.057,88.941 19.110 M107.278 19.110 C 108.643 19.162,110.801 19.162,112.073 19.110 C 113.345 19.057,112.228 19.015,109.591 19.015 C 106.953 19.016,105.912 19.058,107.278 19.110 M126.305 19.110 C 127.585 19.162,129.679 19.162,130.959 19.110 C 132.239 19.057,131.192 19.015,128.632 19.015 C 126.072 19.015,125.025 19.057,126.305 19.110 M145.359 19.110 C 146.725 19.162,148.883 19.162,150.155 19.110 C 151.427 19.057,150.310 19.015,147.673 19.015 C 145.035 19.016,143.994 19.058,145.359 19.110 M164.386 19.110 C 165.666 19.162,167.761 19.162,169.041 19.110 C 170.321 19.057,169.274 19.015,166.714 19.015 C 164.154 19.015,163.106 19.057,164.386 19.110 M183.441 19.110 C 184.806 19.162,186.964 19.162,188.237 19.110 C 189.509 19.057,188.392 19.015,185.755 19.015 C 183.117 19.016,182.076 19.058,183.441 19.110 M202.468 19.110 C 203.748 19.162,205.843 19.162,207.123 19.110 C 208.403 19.057,207.355 19.015,204.795 19.015 C 202.236 19.015,201.188 19.057,202.468 19.110 M221.523 19.110 C 222.888 19.162,225.046 19.162,226.319 19.110 C 227.591 19.057,226.474 19.015,223.836 19.015 C 221.199 19.016,220.158 19.058,221.523 19.110 M240.550 19.110 C 241.830 19.162,243.925 19.162,245.205 19.110 C 246.484 19.057,245.437 19.015,242.877 19.015 C 240.317 19.015,239.270 19.057,240.550 19.110 M251.058 19.011 C 251.058 19.073,251.555 19.170,252.162 19.228 C 252.770 19.286,253.207 19.236,253.133 19.117 C 252.999 18.900,251.058 18.801,251.058 19.011 M256.129 20.510 C 256.513 20.788,257.275 21.391,257.821 21.849 L 258.815 22.683 258.052 21.847 C 257.632 21.387,256.871 20.784,256.360 20.507 C 255.465 20.022,255.456 20.022,256.129 20.510 M258.964 22.849 C 258.964 22.927,259.343 23.738,259.806 24.652 C 260.270 25.566,260.649 26.164,260.649 25.981 C 260.649 25.797,260.400 25.177,260.096 24.601 C 259.474 23.424,258.965 22.637,258.964 22.849 M260.861 50.027 C 260.900 62.928,260.965 77.546,261.006 82.511 C 261.047 87.475,261.108 77.066,261.142 59.379 C 261.176 41.693,261.111 27.075,260.997 26.896 C 260.883 26.716,260.822 37.125,260.861 50.027 M77.996 131.171 C 77.996 187.722,78.028 210.857,78.068 182.581 C 78.107 154.305,78.107 108.036,78.068 79.760 C 78.028 51.484,77.996 74.619,77.996 131.171 M159.252 39.743 C 159.400 39.880,159.838 40.079,160.226 40.184 C 160.765 40.330,160.831 40.306,160.508 40.079 C 160.211 39.872,172.100 39.782,200.212 39.779 L 240.339 39.774 240.367 65.515 C 240.382 79.672,240.477 91.549,240.578 91.908 C 240.679 92.266,240.729 80.778,240.689 66.379 C 240.649 51.979,240.557 40.039,240.486 39.845 C 240.383 39.565,231.962 39.492,199.670 39.492 C 175.968 39.492,159.096 39.597,159.252 39.743 M163.611 41.185 C 163.843 41.335,164.224 41.458,164.457 41.458 C 164.833 41.458,164.833 41.428,164.457 41.185 C 164.224 41.034,163.843 40.911,163.611 40.911 C 163.235 40.911,163.235 40.942,163.611 41.185 M165.336 41.594 C 165.431 41.689,165.930 41.887,166.445 42.035 C 166.960 42.182,167.262 42.195,167.118 42.063 C 166.818 41.788,165.071 41.329,165.336 41.594 M168.265 42.595 C 168.575 42.729,169.020 42.838,169.252 42.838 C 169.519 42.838,169.467 42.748,169.111 42.595 C 168.801 42.462,168.357 42.353,168.124 42.353 C 167.857 42.353,167.910 42.442,168.265 42.595 M184.767 47.532 C 186.055 48.028,186.562 48.020,185.472 47.522 C 185.007 47.308,184.436 47.138,184.203 47.143 C 183.970 47.148,184.224 47.323,184.767 47.532 M195.198 50.975 C 195.582 51.253,196.344 51.856,196.890 52.315 L 197.884 53.148 197.121 52.312 C 196.702 51.853,195.940 51.250,195.429 50.973 C 194.534 50.488,194.525 50.488,195.198 50.975 M198.036 53.456 C 198.037 53.611,198.298 54.055,198.615 54.443 C 198.998 54.911,199.094 54.959,198.900 54.584 C 198.425 53.664,198.034 53.154,198.036 53.456 M199.929 139.291 C 199.968 184.550,200.059 221.738,200.132 221.932 C 200.326 222.449,240.296 222.449,240.486 221.932 C 240.557 221.738,240.649 209.798,240.689 195.399 C 240.729 180.999,240.679 169.511,240.578 169.870 C 240.477 170.228,240.382 182.105,240.367 196.262 L 240.339 222.003 220.310 222.003 L 200.282 222.003 200.262 139.986 C 200.251 94.877,200.156 57.752,200.051 57.486 C 199.945 57.220,199.890 94.032,199.929 139.291 M279.207 90.217 C 278.941 90.323,279.856 90.409,281.241 90.409 C 282.626 90.409,283.542 90.323,283.276 90.217 C 283.010 90.112,282.094 90.026,281.241 90.026 C 280.388 90.026,279.472 90.112,279.207 90.217 M277.010 90.973 C 276.622 91.195,276.432 91.376,276.587 91.376 C 276.742 91.376,277.186 91.195,277.574 90.973 C 277.962 90.751,278.152 90.570,277.997 90.570 C 277.842 90.570,277.398 90.751,277.010 90.973 M275.122 92.122 L 274.330 92.848 275.247 92.210 C 275.751 91.859,276.164 91.533,276.164 91.484 C 276.164 91.262,275.852 91.453,275.122 92.122 M287.056 92.003 C 287.504 92.337,294.980 99.667,303.670 108.293 L 319.469 123.977 303.237 107.687 C 294.309 98.727,286.833 91.396,286.624 91.396 C 286.414 91.396,286.609 91.669,287.056 92.003 M273.356 93.727 L 272.705 94.640 273.502 93.873 C 273.941 93.451,274.234 93.040,274.154 92.960 C 274.074 92.879,273.715 93.225,273.356 93.727 M241.056 93.724 C 241.162 94.073,241.364 94.482,241.506 94.634 C 241.648 94.786,241.621 94.500,241.447 93.999 C 241.090 92.974,240.760 92.742,241.056 93.724 M272.060 95.654 C 271.812 96.134,271.659 96.576,271.720 96.638 C 271.781 96.699,272.042 96.306,272.300 95.765 C 272.880 94.549,272.679 94.456,272.060 95.654 M243.430 97.391 C 244.121 98.128,244.724 98.731,244.770 98.731 C 244.981 98.731,244.757 98.477,243.512 97.308 L 242.172 96.051 243.430 97.391 M257.405 97.939 L 256.559 98.807 257.467 98.192 C 258.407 97.555,258.877 97.026,258.479 97.054 C 258.354 97.063,257.870 97.461,257.405 97.939 M270.832 100.306 C 270.848 100.913,270.964 101.728,271.091 102.116 C 271.235 102.554,271.263 102.180,271.165 101.128 C 270.983 99.169,270.791 98.695,270.832 100.306 M249.577 100.531 C 250.288 100.682,251.263 100.682,251.975 100.531 C 253.036 100.306,252.898 100.277,250.776 100.277 C 248.654 100.277,248.516 100.306,249.577 100.531 M271.650 104.198 C 271.650 104.501,272.490 106.065,272.652 106.065 C 272.730 106.065,272.583 105.652,272.327 105.148 C 271.803 104.119,271.650 103.904,271.650 104.198 M277.998 111.685 C 279.083 112.837,280.137 113.963,280.338 114.187 C 280.539 114.411,280.757 114.541,280.823 114.476 C 280.888 114.410,279.835 113.284,278.483 111.974 L 276.024 109.591 277.998 111.685 M228.544 120.691 C 227.946 120.859,267.919 120.832,281.100 120.656 C 284.203 120.614,273.794 120.564,257.969 120.544 C 242.144 120.524,228.902 120.590,228.544 120.691 M226.305 121.306 C 225.360 121.686,225.537 121.879,226.516 121.537 C 226.982 121.375,227.362 121.191,227.362 121.129 C 227.362 120.962,227.019 121.019,226.305 121.306 M224.346 122.588 L 223.554 123.313 224.471 122.676 C 224.975 122.325,225.388 121.998,225.388 121.950 C 225.388 121.727,225.076 121.918,224.346 122.588 M222.591 124.226 L 221.910 125.106 222.717 124.339 C 223.161 123.917,223.468 123.521,223.398 123.459 C 223.329 123.397,222.966 123.742,222.591 124.226 M220.419 128.192 C 220.333 128.416,220.312 128.828,220.373 129.109 C 220.442 129.428,220.539 129.275,220.630 128.702 C 220.784 127.742,220.684 127.501,220.419 128.192 M321.952 130.889 C 321.952 131.897,322.003 132.310,322.066 131.805 C 322.128 131.301,322.128 130.476,322.066 129.972 C 322.003 129.468,321.952 129.880,321.952 130.889 M220.315 132.887 C 220.317 133.262,220.444 133.759,220.596 133.992 C 220.791 134.289,220.820 134.122,220.693 133.427 C 220.469 132.211,220.309 131.981,220.315 132.887 M321.211 134.579 C 321.112 134.977,320.713 135.769,320.326 136.339 C 319.939 136.910,319.725 137.377,319.851 137.377 C 320.191 137.377,321.640 134.597,321.508 134.199 C 321.445 134.009,321.311 134.180,321.211 134.579 M221.688 136.469 C 222.129 137.292,224.355 139.377,225.247 139.802 C 225.712 140.024,225.839 140.045,225.529 139.849 C 225.219 139.653,224.169 138.703,223.197 137.738 C 222.224 136.773,221.545 136.202,221.688 136.469 M303.666 153.526 L 287.870 169.394 303.738 153.598 C 312.465 144.910,319.605 137.769,319.605 137.730 C 319.605 137.532,318.349 138.777,303.666 153.526 M257.902 141.324 L 286.609 141.467 281.198 146.827 C 274.948 153.018,272.214 155.913,272.214 156.341 C 272.214 156.507,272.582 156.148,273.032 155.543 C 273.481 154.938,276.774 151.531,280.350 147.973 C 283.926 144.414,286.788 141.400,286.709 141.273 C 286.631 141.147,273.659 141.075,257.882 141.112 L 229.196 141.181 257.902 141.324 M270.808 161.660 C 270.811 162.345,270.934 163.096,271.083 163.329 C 271.264 163.611,271.296 163.237,271.180 162.200 C 270.964 160.262,270.803 160.028,270.808 161.660 M255.994 162.664 C 257.431 163.938,257.960 164.310,257.406 163.655 C 257.098 163.292,256.592 162.864,256.280 162.704 C 255.968 162.544,255.839 162.526,255.994 162.664 M243.565 164.245 L 242.736 165.162 243.653 164.334 C 244.157 163.878,244.570 163.465,244.570 163.417 C 244.570 163.199,244.337 163.391,243.565 164.245 M273.187 167.895 C 273.816 168.889,276.728 171.063,276.728 170.539 C 276.728 170.460,276.350 170.200,275.889 169.961 C 275.427 169.723,274.522 168.989,273.878 168.332 C 273.107 167.545,272.871 167.396,273.187 167.895 M286.460 170.118 C 285.994 170.416,285.740 170.660,285.896 170.660 C 286.051 170.659,286.559 170.407,287.024 170.099 C 287.489 169.790,287.743 169.547,287.588 169.557 C 287.433 169.567,286.925 169.820,286.460 170.118 M261.000 202.304 C 260.962 219.940,260.858 234.601,260.769 234.885 C 260.623 235.348,260.638 235.353,260.911 234.931 C 261.125 234.600,261.194 224.976,261.142 202.350 L 261.070 170.240 261.000 202.304 M279.082 171.575 C 279.261 171.689,280.233 171.783,281.241 171.783 C 282.250 171.783,283.221 171.689,283.400 171.575 C 283.580 171.461,282.608 171.368,281.241 171.368 C 279.874 171.368,278.903 171.461,279.082 171.575 M259.283 238.082 C 258.939 238.547,258.761 238.928,258.887 238.928 C 259.013 238.928,259.342 238.547,259.617 238.082 C 259.892 237.616,260.070 237.236,260.013 237.236 C 259.955 237.236,259.627 237.616,259.283 238.082 M79.806 238.600 C 80.178 239.295,82.961 241.754,83.352 241.734 C 83.510 241.726,83.322 241.510,82.934 241.255 C 82.546 241.000,81.616 240.172,80.867 239.415 C 80.119 238.659,79.641 238.292,79.806 238.600 M256.135 241.185 C 255.748 241.488,255.557 241.736,255.712 241.736 C 255.867 241.736,256.312 241.488,256.700 241.185 C 257.087 240.881,257.278 240.633,257.123 240.633 C 256.968 240.633,256.523 240.881,256.135 241.185 M87.024 242.877 C 87.334 243.011,87.842 243.116,88.152 243.111 C 88.606 243.105,88.578 243.059,88.011 242.877 C 87.047 242.568,86.305 242.568,87.024 242.877 M200.328 242.815 C 200.090 242.894,200.017 244.563,200.062 248.895 L 200.124 254.866 200.273 248.942 L 200.423 243.018 226.424 243.016 C 240.725 243.015,252.491 242.949,252.570 242.870 C 252.736 242.704,200.824 242.650,200.328 242.815 M94.076 244.288 C 94.386 244.421,94.831 244.530,95.063 244.530 C 95.330 244.530,95.278 244.441,94.922 244.288 C 94.612 244.154,94.168 244.045,93.935 244.045 C 93.668 244.045,93.721 244.135,94.076 244.288 M96.615 244.839 C 97.156 245.084,98.667 245.244,98.425 245.030 C 98.360 244.973,97.800 244.849,97.179 244.755 C 96.393 244.635,96.222 244.661,96.615 244.839 M100.705 245.698 C 101.093 245.822,101.664 245.924,101.975 245.924 C 102.421 245.924,102.392 245.877,101.834 245.698 C 101.446 245.574,100.874 245.472,100.564 245.472 C 100.117 245.472,100.147 245.519,100.705 245.698 M103.670 246.267 C 103.764 246.419,104.236 246.544,104.718 246.544 C 105.784 246.544,105.676 246.404,104.429 246.166 C 103.847 246.055,103.562 246.093,103.670 246.267 M108.039 247.109 C 108.427 247.233,108.999 247.334,109.309 247.334 C 109.756 247.334,109.726 247.287,109.168 247.109 C 108.780 246.984,108.209 246.883,107.898 246.883 C 107.452 246.883,107.481 246.930,108.039 247.109 M110.860 247.669 C 111.093 247.821,111.590 247.948,111.965 247.951 C 112.871 247.956,112.641 247.796,111.425 247.573 C 110.730 247.445,110.563 247.474,110.860 247.669 M113.987 248.339 C 114.051 248.395,114.676 248.516,115.374 248.608 C 116.221 248.720,116.456 248.693,116.079 248.526 C 115.540 248.288,113.742 248.127,113.987 248.339 M118.054 249.083 C 118.364 249.217,118.872 249.322,119.182 249.317 C 119.635 249.311,119.608 249.265,119.041 249.083 C 118.076 248.774,117.335 248.774,118.054 249.083 M121.321 249.751 C 121.386 249.808,121.946 249.932,122.567 250.026 C 123.353 250.146,123.524 250.121,123.131 249.943 C 122.590 249.697,121.079 249.537,121.321 249.751 M124.824 250.494 C 125.134 250.627,125.642 250.732,125.952 250.728 C 126.406 250.721,126.378 250.675,125.811 250.494 C 124.846 250.185,124.105 250.185,124.824 250.494 M127.504 251.043 C 127.736 251.202,128.297 251.333,128.749 251.336 C 129.833 251.341,129.608 251.178,128.209 250.944 C 127.400 250.808,127.200 250.837,127.504 251.043 M131.735 251.904 C 132.123 252.028,132.757 252.128,133.145 252.125 C 133.779 252.120,133.764 252.098,133.004 251.904 C 131.811 251.600,130.787 251.600,131.735 251.904 M139.210 253.315 C 139.520 253.448,140.028 253.553,140.339 253.549 C 140.792 253.542,140.764 253.496,140.197 253.315 C 139.233 253.006,138.491 253.006,139.210 253.315 M142.031 253.879 C 142.341 254.012,142.849 254.117,143.159 254.113 C 143.613 254.106,143.585 254.060,143.018 253.879 C 142.054 253.570,141.312 253.570,142.031 253.879 M145.698 254.725 C 146.891 255.029,147.916 255.029,146.968 254.725 C 146.580 254.601,145.945 254.501,145.557 254.504 C 144.924 254.509,144.938 254.532,145.698 254.725 M148.801 255.289 C 149.111 255.422,149.619 255.528,149.929 255.523 C 150.383 255.517,150.355 255.471,149.788 255.289 C 148.824 254.980,148.082 254.980,148.801 255.289 M151.622 255.825 C 151.932 255.953,152.821 256.134,153.597 256.227 C 154.465 256.332,154.736 256.310,154.302 256.170 C 153.285 255.844,150.932 255.540,151.622 255.825 M156.135 256.700 C 156.446 256.833,156.953 256.938,157.264 256.934 C 157.717 256.927,157.690 256.881,157.123 256.700 C 156.158 256.391,155.417 256.391,156.135 256.700 M158.815 257.260 C 159.048 257.412,159.545 257.539,159.920 257.542 C 160.825 257.547,160.596 257.387,159.379 257.164 C 158.685 257.036,158.518 257.065,158.815 257.260 M198.568 258.151 C 198.390 258.483,197.724 259.340,197.088 260.055 L 195.932 261.354 197.056 260.301 C 198.096 259.327,199.378 257.546,199.039 257.546 C 198.958 257.546,198.746 257.818,198.568 258.151 M163.188 258.110 C 163.498 258.243,164.006 258.349,164.316 258.344 C 164.769 258.337,164.742 258.292,164.175 258.110 C 163.210 257.801,162.469 257.801,163.188 258.110 M170.240 259.520 C 170.550 259.654,170.994 259.763,171.227 259.763 C 171.494 259.763,171.442 259.673,171.086 259.520 C 170.776 259.387,170.331 259.278,170.099 259.278 C 169.832 259.278,169.884 259.368,170.240 259.520 M172.772 260.073 C 172.871 260.235,173.284 260.367,173.688 260.367 C 174.573 260.367,174.470 260.232,173.390 259.972 C 172.865 259.846,172.653 259.881,172.772 260.073 M176.728 260.931 C 177.921 261.235,178.945 261.235,177.997 260.931 C 177.609 260.807,176.975 260.707,176.587 260.710 C 175.953 260.715,175.968 260.737,176.728 260.931 M179.831 261.482 C 180.372 261.727,181.883 261.887,181.641 261.674 C 181.576 261.617,181.016 261.493,180.395 261.398 C 179.609 261.278,179.438 261.304,179.831 261.482 M184.203 262.341 C 185.168 262.650,185.909 262.650,185.190 262.341 C 184.880 262.208,184.372 262.103,184.062 262.107 C 183.609 262.114,183.636 262.160,184.203 262.341 M187.165 262.898 C 187.704 263.137,189.502 263.298,189.257 263.086 C 189.193 263.030,188.568 262.908,187.870 262.816 C 187.023 262.704,186.788 262.731,187.165 262.898 M191.537 262.906 L 190.832 263.131 191.537 263.155 C 191.925 263.168,192.433 263.056,192.666 262.906 C 193.205 262.557,192.625 262.557,191.537 262.906 " stroke="none" fill="#9c9c9c" fill-rule="evenodd"></path><path id="path3" d="M257.045 21.488 C 257.623 22.004,258.416 22.863,258.808 23.398 C 259.200 23.932,259.520 24.273,259.520 24.154 C 259.520 23.719,258.041 22.019,257.033 21.295 L 255.994 20.549 257.045 21.488 M81.087 22.355 L 79.972 23.554 81.171 22.439 C 81.830 21.826,82.370 21.286,82.370 21.240 C 82.370 21.027,82.124 21.240,81.087 22.355 M260.559 27.645 C 260.652 28.343,260.773 28.967,260.829 29.031 C 261.041 29.277,260.880 27.478,260.641 26.939 C 260.475 26.563,260.447 26.797,260.559 27.645 M78.314 27.514 C 78.217 27.767,78.151 28.248,78.167 28.584 C 78.185 28.971,78.281 28.834,78.428 28.211 C 78.674 27.162,78.607 26.751,78.314 27.514 M158.250 39.632 C 158.640 40.102,159.232 40.221,158.956 39.774 C 158.840 39.587,172.493 39.492,199.700 39.492 L 240.618 39.492 240.692 65.092 L 240.766 90.691 240.764 65.021 L 240.762 39.351 199.330 39.280 C 162.488 39.216,157.937 39.255,158.250 39.632 M189.704 49.365 C 190.014 49.499,190.458 49.608,190.691 49.608 C 190.958 49.608,190.906 49.518,190.550 49.365 C 190.240 49.232,189.795 49.123,189.563 49.123 C 189.296 49.123,189.348 49.212,189.704 49.365 M199.627 58.251 C 199.717 59.027,199.837 59.714,199.895 59.779 C 200.093 60.001,199.944 58.251,199.704 57.546 C 199.542 57.070,199.517 57.300,199.627 58.251 M199.834 71.368 C 199.834 74.083,199.876 75.194,199.928 73.836 C 199.980 72.479,199.980 70.257,199.928 68.900 C 199.876 67.542,199.834 68.653,199.834 71.368 M199.834 90.550 C 199.834 93.265,199.876 94.376,199.928 93.018 C 199.980 91.661,199.980 89.439,199.928 88.082 C 199.876 86.724,199.834 87.835,199.834 90.550 M280.606 90.467 C 280.956 90.534,281.527 90.534,281.876 90.467 C 282.225 90.400,281.939 90.345,281.241 90.345 C 280.543 90.345,280.257 90.400,280.606 90.467 M260.683 90.973 C 260.660 91.283,260.576 91.855,260.496 92.243 L 260.351 92.948 260.653 92.256 C 260.819 91.875,260.903 91.304,260.840 90.986 C 260.729 90.424,260.725 90.424,260.683 90.973 M276.164 91.667 C 275.621 91.957,274.732 92.681,274.189 93.276 L 273.202 94.358 274.330 93.332 C 274.951 92.767,275.871 92.097,276.375 91.843 C 276.879 91.590,277.292 91.322,277.292 91.248 C 277.292 91.065,277.282 91.069,276.164 91.667 M287.306 92.553 C 287.927 93.066,288.974 94.029,289.633 94.694 C 290.293 95.358,290.832 95.787,290.832 95.647 C 290.832 95.333,287.515 92.299,286.742 91.907 C 286.432 91.749,286.685 92.040,287.306 92.553 M257.674 97.391 L 256.559 98.590 257.757 97.474 C 258.417 96.861,258.956 96.322,258.956 96.276 C 258.956 96.062,258.711 96.276,257.674 97.391 M242.877 96.562 C 242.877 96.611,243.290 97.023,243.794 97.479 L 244.711 98.307 243.882 97.391 C 243.110 96.536,242.877 96.344,242.877 96.562 M271.434 98.731 C 271.434 99.274,271.492 99.496,271.563 99.224 C 271.634 98.953,271.634 98.508,271.563 98.237 C 271.492 97.965,271.434 98.188,271.434 98.731 M244.994 98.450 C 245.183 98.756,246.827 99.671,246.827 99.471 C 246.827 99.405,246.375 99.084,245.822 98.758 C 245.270 98.432,244.897 98.294,244.994 98.450 M297.215 102.186 C 301.112 105.988,301.238 106.030,297.607 102.318 C 295.981 100.655,294.561 99.295,294.451 99.295 C 294.341 99.295,295.585 100.596,297.215 102.186 M271.434 102.116 C 271.434 102.659,271.492 102.881,271.563 102.609 C 271.634 102.338,271.634 101.894,271.563 101.622 C 271.492 101.350,271.434 101.573,271.434 102.116 M199.834 109.732 C 199.834 112.447,199.876 113.558,199.928 112.200 C 199.980 110.843,199.980 108.621,199.928 107.264 C 199.876 105.906,199.834 107.017,199.834 109.732 M280.100 113.528 C 284.770 118.201,286.863 120.476,286.586 120.581 C 286.362 120.665,273.420 120.767,257.828 120.806 L 229.478 120.877 258.164 120.946 C 278.854 120.996,286.903 120.929,287.042 120.704 C 287.231 120.399,274.055 106.761,273.486 106.672 C 273.332 106.649,276.308 109.733,280.100 113.528 M303.787 108.979 C 304.505 109.770,304.660 109.868,304.646 109.520 C 304.641 109.404,304.292 109.065,303.870 108.767 L 303.103 108.226 303.787 108.979 M306.770 111.707 C 307.848 112.793,308.793 113.681,308.871 113.681 C 308.948 113.681,308.130 112.793,307.052 111.707 C 305.974 110.621,305.029 109.732,304.952 109.732 C 304.874 109.732,305.692 110.621,306.770 111.707 M309.873 115.092 C 310.154 115.402,310.491 115.656,310.622 115.656 C 310.753 115.656,310.606 115.402,310.296 115.092 C 309.986 114.781,309.649 114.528,309.547 114.528 C 309.446 114.528,309.592 114.781,309.873 115.092 M311.283 116.502 C 311.564 116.812,311.921 117.066,312.076 117.066 C 312.230 117.066,312.064 116.812,311.707 116.502 C 311.349 116.192,310.992 115.938,310.915 115.938 C 310.837 115.938,311.003 116.192,311.283 116.502 M312.553 117.457 C 312.553 117.566,312.807 117.927,313.117 118.260 C 313.427 118.593,313.681 118.734,313.681 118.574 C 313.681 118.413,313.427 118.052,313.117 117.772 C 312.807 117.491,312.553 117.349,312.553 117.457 M316.797 121.699 C 317.968 122.952,319.280 124.422,319.712 124.965 C 320.144 125.508,320.353 125.661,320.176 125.306 C 320.000 124.951,318.688 123.481,317.262 122.040 C 314.988 119.743,314.931 119.700,316.797 121.699 M223.793 123.446 L 222.426 124.748 223.695 123.688 C 225.398 122.267,225.528 122.144,225.331 122.144 C 225.237 122.144,224.545 122.730,223.793 123.446 M199.834 128.632 C 199.834 131.347,199.876 132.458,199.928 131.100 C 199.980 129.743,199.980 127.521,199.928 126.164 C 199.876 124.806,199.834 125.917,199.834 128.632 M321.354 128.491 C 321.354 128.801,321.455 129.372,321.580 129.760 C 321.759 130.319,321.806 130.348,321.806 129.901 C 321.806 129.591,321.704 129.020,321.580 128.632 C 321.401 128.073,321.354 128.044,321.354 128.491 M321.454 132.456 C 321.348 133.022,321.325 133.548,321.402 133.626 C 321.480 133.704,321.630 133.304,321.736 132.738 C 321.843 132.172,321.866 131.645,321.788 131.567 C 321.711 131.490,321.561 131.890,321.454 132.456 M319.535 136.938 C 319.108 137.473,318.759 137.998,318.759 138.106 C 318.759 138.213,319.140 137.821,319.605 137.236 C 320.389 136.249,320.562 135.966,320.381 135.966 C 320.342 135.966,319.961 136.404,319.535 136.938 M222.224 136.671 C 222.387 136.982,223.003 137.680,223.592 138.223 C 224.565 139.120,223.736 138.053,222.058 136.248 C 221.985 136.171,222.060 136.361,222.224 136.671 M226.234 140.056 C 226.622 140.278,227.066 140.460,227.221 140.460 C 227.377 140.460,227.186 140.278,226.798 140.056 C 226.410 139.835,225.966 139.653,225.811 139.653 C 225.656 139.653,225.846 139.835,226.234 140.056 M315.853 140.827 C 314.734 142.023,315.071 142.088,316.224 140.898 C 316.748 140.358,317.057 139.930,316.910 139.949 C 316.763 139.967,316.287 140.363,315.853 140.827 M231.241 140.972 C 232.521 141.024,234.616 141.024,235.896 140.972 C 237.176 140.919,236.128 140.876,233.568 140.876 C 231.008 140.876,229.961 140.919,231.241 140.972 M250.000 140.972 C 251.358 141.023,253.579 141.023,254.937 140.972 C 256.294 140.920,255.183 140.878,252.468 140.878 C 249.753 140.878,248.642 140.920,250.000 140.972 M268.900 140.972 C 270.257 141.023,272.479 141.023,273.836 140.972 C 275.194 140.920,274.083 140.878,271.368 140.878 C 268.653 140.878,267.542 140.920,268.900 140.972 M280.217 148.096 C 276.473 151.897,273.191 155.388,272.923 155.853 L 272.437 156.700 273.079 155.853 C 273.432 155.388,276.771 151.932,280.498 148.174 C 284.225 144.416,287.218 141.306,287.149 141.263 C 287.080 141.220,283.961 144.295,280.217 148.096 M199.834 147.814 C 199.834 150.529,199.876 151.640,199.928 150.282 C 199.980 148.925,199.980 146.703,199.928 145.346 C 199.876 143.988,199.834 145.099,199.834 147.814 M311.057 145.623 C 309.939 146.819,310.276 146.883,311.429 145.694 C 311.953 145.153,312.261 144.726,312.115 144.744 C 311.968 144.763,311.492 145.158,311.057 145.623 M307.475 149.261 C 305.157 151.734,305.139 151.841,307.408 149.655 C 308.531 148.573,309.450 147.653,309.450 147.610 C 309.450 147.303,308.811 147.837,307.475 149.261 M298.945 157.780 C 296.038 160.732,293.696 163.183,293.740 163.227 C 293.784 163.272,296.288 160.837,299.305 157.818 C 302.322 154.798,304.664 152.346,304.511 152.370 C 304.357 152.394,301.853 154.828,298.945 157.780 M271.434 159.661 C 271.434 160.205,271.492 160.427,271.563 160.155 C 271.634 159.884,271.634 159.439,271.563 159.168 C 271.492 158.896,271.434 159.118,271.434 159.661 M199.834 166.714 C 199.834 169.429,199.876 170.539,199.928 169.182 C 199.980 167.824,199.980 165.603,199.928 164.245 C 199.876 162.888,199.834 163.999,199.834 166.714 M255.571 162.928 C 256.269 163.324,257.348 164.116,257.967 164.687 C 259.077 165.711,259.082 165.713,258.249 164.772 C 257.375 163.784,255.121 162.198,254.599 162.204 C 254.436 162.206,254.873 162.531,255.571 162.928 M244.099 164.105 C 243.452 164.687,242.712 165.543,242.455 166.008 C 241.993 166.846,241.993 166.847,242.493 166.150 C 242.770 165.762,243.571 164.905,244.271 164.245 C 245.844 162.765,245.710 162.657,244.099 164.105 M290.811 166.014 C 287.605 169.257,287.584 169.400,290.770 166.296 C 292.201 164.903,293.371 163.729,293.371 163.687 C 293.371 163.464,292.986 163.814,290.811 166.014 M272.346 166.132 C 272.582 166.587,272.903 167.039,273.059 167.136 C 273.216 167.233,273.077 166.860,272.751 166.307 C 272.037 165.097,271.746 164.970,272.346 166.132 M274.189 168.547 C 274.715 169.090,275.209 169.535,275.287 169.535 C 275.365 169.535,274.997 169.090,274.471 168.547 C 273.945 168.004,273.451 167.560,273.373 167.560 C 273.296 167.560,273.663 168.004,274.189 168.547 M287.024 169.429 C 286.517 169.860,286.413 170.032,286.765 169.857 C 287.282 169.600,288.252 168.672,287.975 168.698 C 287.918 168.704,287.489 169.033,287.024 169.429 M260.552 169.958 C 260.646 170.578,260.770 171.139,260.827 171.204 C 261.041 171.446,260.881 169.935,260.636 169.394 C 260.457 169.000,260.432 169.171,260.552 169.958 M277.010 170.522 C 277.398 170.744,277.842 170.925,277.997 170.925 C 278.152 170.925,277.962 170.744,277.574 170.522 C 277.186 170.300,276.742 170.119,276.587 170.119 C 276.432 170.119,276.622 170.300,277.010 170.522 M240.621 196.671 C 240.543 210.899,240.575 222.443,240.693 222.326 C 240.810 222.209,240.873 210.568,240.834 196.458 L 240.762 170.804 240.621 196.671 M279.126 171.214 C 279.667 171.459,281.178 171.619,280.936 171.406 C 280.871 171.349,280.310 171.225,279.690 171.130 C 278.903 171.010,278.732 171.036,279.126 171.214 M199.834 185.896 C 199.834 188.611,199.876 189.721,199.928 188.364 C 199.980 187.006,199.980 184.785,199.928 183.427 C 199.876 182.070,199.834 183.181,199.834 185.896 M199.834 204.795 C 199.834 207.511,199.876 208.621,199.928 207.264 C 199.980 205.906,199.980 203.685,199.928 202.327 C 199.876 200.970,199.834 202.080,199.834 204.795 M199.802 220.592 C 199.802 221.446,199.855 221.795,199.920 221.368 C 199.985 220.941,199.985 220.243,199.920 219.817 C 199.855 219.390,199.802 219.739,199.802 220.592 M78.200 233.286 C 78.197 233.674,78.296 234.309,78.420 234.697 C 78.724 235.645,78.724 234.621,78.420 233.427 C 78.227 232.667,78.204 232.653,78.200 233.286 M260.683 233.427 C 260.660 233.738,260.576 234.309,260.496 234.697 L 260.351 235.402 260.653 234.710 C 260.819 234.329,260.903 233.758,260.840 233.441 C 260.729 232.878,260.725 232.878,260.683 233.427 M259.957 236.347 C 259.859 236.657,259.451 237.393,259.051 237.982 C 258.646 238.579,258.536 238.878,258.802 238.657 C 259.355 238.198,260.471 236.117,260.271 235.918 C 260.197 235.843,260.056 236.036,259.957 236.347 M79.718 237.800 C 80.067 238.555,81.294 240.097,81.434 239.957 C 81.509 239.883,81.338 239.586,81.053 239.298 C 80.769 239.010,80.308 238.460,80.029 238.076 C 79.751 237.691,79.611 237.567,79.718 237.800 M82.064 240.441 C 82.440 240.904,83.498 241.603,83.498 241.389 C 83.498 241.335,83.085 240.989,82.581 240.620 C 82.014 240.204,81.817 240.136,82.064 240.441 M256.276 240.797 C 255.769 241.228,255.666 241.400,256.018 241.225 C 256.535 240.968,257.505 240.040,257.228 240.067 C 257.170 240.072,256.742 240.401,256.276 240.797 M251.763 242.313 L 250.353 242.507 251.622 242.531 C 252.320 242.545,253.145 242.446,253.456 242.313 C 254.100 242.036,253.781 242.036,251.763 242.313 M200.184 242.525 C 200.112 242.641,201.532 242.703,203.341 242.662 C 209.408 242.526,210.051 242.422,205.165 242.367 C 202.498 242.338,200.256 242.408,200.184 242.525 M221.213 242.523 C 222.563 242.575,224.847 242.575,226.290 242.523 C 227.733 242.472,226.629 242.430,223.836 242.430 C 221.044 242.429,219.863 242.471,221.213 242.523 M240.268 242.523 C 241.703 242.574,244.051 242.574,245.487 242.523 C 246.922 242.472,245.748 242.430,242.877 242.430 C 240.007 242.430,238.833 242.472,240.268 242.523 M89.704 243.159 C 90.668 243.468,91.410 243.468,90.691 243.159 C 90.381 243.026,89.873 242.921,89.563 242.925 C 89.109 242.932,89.137 242.978,89.704 243.159 M199.818 245.557 C 199.817 246.953,199.865 247.560,199.924 246.906 C 199.983 246.251,199.984 245.108,199.926 244.367 C 199.867 243.625,199.819 244.161,199.818 245.557 M92.666 243.724 C 92.976 243.857,93.484 243.962,93.794 243.958 C 94.248 243.951,94.220 243.905,93.653 243.724 C 92.689 243.415,91.947 243.415,92.666 243.724 M95.933 244.388 C 95.998 244.444,96.495 244.570,97.038 244.670 C 97.733 244.797,97.900 244.769,97.602 244.574 C 97.220 244.323,95.653 244.149,95.933 244.388 M99.436 245.134 C 99.746 245.267,100.254 245.376,100.564 245.376 L 101.128 245.376 100.564 245.134 C 100.254 245.001,99.746 244.892,99.436 244.892 L 98.872 244.892 99.436 245.134 M106.629 246.544 C 107.017 246.669,107.588 246.770,107.898 246.770 C 108.345 246.770,108.316 246.723,107.757 246.544 C 107.370 246.420,106.798 246.319,106.488 246.319 C 106.041 246.319,106.071 246.366,106.629 246.544 M113.681 247.955 C 114.646 248.264,115.387 248.264,114.669 247.955 C 114.358 247.822,113.850 247.716,113.540 247.721 C 113.087 247.727,113.114 247.773,113.681 247.955 M120.193 249.185 C 120.257 249.240,120.691 249.371,121.157 249.475 C 121.775 249.613,121.889 249.587,121.580 249.378 C 121.199 249.120,119.910 248.940,120.193 249.185 M123.413 249.929 C 123.724 250.063,124.231 250.168,124.542 250.164 C 124.995 250.157,124.967 250.111,124.401 249.929 C 123.436 249.621,122.694 249.621,123.413 249.929 M126.963 250.597 C 127.028 250.654,127.588 250.778,128.209 250.873 C 128.995 250.992,129.166 250.967,128.773 250.789 C 128.231 250.544,126.720 250.384,126.963 250.597 M134.838 252.186 C 135.802 252.495,136.544 252.495,135.825 252.186 C 135.515 252.053,135.007 251.947,134.697 251.952 C 134.243 251.959,134.271 252.005,134.838 252.186 M137.659 252.750 C 138.623 253.059,139.365 253.059,138.646 252.750 C 138.336 252.617,137.828 252.512,137.518 252.516 C 137.064 252.523,137.092 252.569,137.659 252.750 M144.711 254.161 C 145.675 254.470,146.417 254.470,145.698 254.161 C 145.388 254.027,144.880 253.922,144.570 253.927 C 144.116 253.933,144.144 253.979,144.711 254.161 M147.391 254.712 C 147.932 254.957,149.443 255.117,149.201 254.903 C 149.136 254.846,148.575 254.722,147.955 254.628 C 147.168 254.508,146.997 254.534,147.391 254.712 M150.940 255.393 C 151.005 255.450,151.566 255.574,152.186 255.668 C 152.973 255.788,153.144 255.763,152.750 255.584 C 152.209 255.339,150.698 255.179,150.940 255.393 M158.275 256.801 C 158.339 256.857,158.773 256.987,159.238 257.092 C 159.856 257.230,159.971 257.204,159.661 256.995 C 159.281 256.737,157.991 256.557,158.275 256.801 M165.045 258.214 C 165.109 258.271,165.670 258.395,166.291 258.489 C 167.077 258.609,167.248 258.583,166.855 258.405 C 166.313 258.160,164.802 258.000,165.045 258.214 M168.688 258.956 C 169.076 259.080,169.647 259.182,169.958 259.182 C 170.404 259.182,170.375 259.135,169.817 258.956 C 169.429 258.832,168.858 258.730,168.547 258.730 C 168.101 258.730,168.130 258.777,168.688 258.956 M171.368 259.507 C 171.910 259.753,173.421 259.913,173.178 259.699 C 173.114 259.642,172.553 259.518,171.932 259.423 C 171.146 259.304,170.975 259.329,171.368 259.507 M196.192 260.539 L 195.063 261.548 196.262 260.652 C 197.294 259.880,197.666 259.508,197.391 259.525 C 197.352 259.527,196.812 259.983,196.192 260.539 M179.149 261.035 C 179.214 261.092,179.774 261.215,180.395 261.310 C 181.181 261.430,181.352 261.404,180.959 261.226 C 180.418 260.981,178.907 260.821,179.149 261.035 M182.252 261.596 C 182.317 261.652,182.750 261.783,183.216 261.887 C 183.834 262.025,183.948 261.999,183.639 261.790 C 183.258 261.532,181.969 261.352,182.252 261.596 M192.666 262.341 C 192.085 262.527,192.060 262.571,192.525 262.591 C 192.835 262.604,193.279 262.492,193.512 262.341 C 194.006 262.022,193.663 262.022,192.666 262.341 " stroke="none" fill="#646464" fill-rule="evenodd"></path><path id="path4" d="M97.376 19.110 C 98.726 19.161,101.011 19.162,102.454 19.110 C 103.897 19.059,102.793 19.017,100.000 19.016 C 97.207 19.016,96.027 19.058,97.376 19.110 M116.558 19.110 C 117.908 19.161,120.193 19.162,121.636 19.110 C 123.079 19.059,121.975 19.017,119.182 19.016 C 116.389 19.016,115.209 19.058,116.558 19.110 M135.458 19.110 C 136.808 19.161,139.093 19.162,140.536 19.110 C 141.979 19.059,140.874 19.017,138.082 19.016 C 135.289 19.016,134.109 19.058,135.458 19.110 M154.640 19.110 C 155.990 19.161,158.275 19.162,159.718 19.110 C 161.161 19.059,160.056 19.017,157.264 19.016 C 154.471 19.016,153.290 19.058,154.640 19.110 M173.540 19.110 C 174.890 19.161,177.175 19.162,178.618 19.110 C 180.061 19.059,178.956 19.017,176.164 19.016 C 173.371 19.016,172.190 19.058,173.540 19.110 M192.722 19.110 C 194.072 19.161,196.357 19.162,197.800 19.110 C 199.243 19.059,198.138 19.017,195.346 19.016 C 192.553 19.016,191.372 19.058,192.722 19.110 M211.622 19.110 C 212.972 19.161,215.256 19.162,216.699 19.110 C 218.142 19.059,217.038 19.017,214.245 19.016 C 211.453 19.016,210.272 19.058,211.622 19.110 M230.804 19.110 C 232.153 19.161,234.438 19.162,235.881 19.110 C 237.324 19.059,236.220 19.017,233.427 19.016 C 230.635 19.016,229.454 19.058,230.804 19.110 M248.160 19.103 C 248.661 19.166,249.549 19.167,250.135 19.106 C 250.720 19.045,250.310 18.994,249.224 18.992 C 248.138 18.991,247.659 19.041,248.160 19.103 M200.185 222.355 C 200.257 222.472,209.313 222.567,220.310 222.567 C 231.307 222.567,240.364 222.472,240.436 222.355 C 240.508 222.239,231.451 222.144,220.310 222.144 C 209.169 222.144,200.113 222.239,200.185 222.355 M211.918 242.805 C 213.276 242.857,215.497 242.857,216.855 242.805 C 218.212 242.754,217.102 242.711,214.386 242.711 C 211.671 242.711,210.561 242.754,211.918 242.805 M230.818 242.805 C 232.176 242.857,234.397 242.857,235.755 242.805 C 237.112 242.754,236.001 242.711,233.286 242.711 C 230.571 242.711,229.461 242.754,230.818 242.805 M248.454 242.800 C 248.961 242.862,249.722 242.861,250.146 242.797 C 250.570 242.732,250.155 242.681,249.224 242.683 C 248.293 242.684,247.947 242.737,248.454 242.800 M189.633 263.100 C 189.905 263.171,190.349 263.171,190.621 263.100 C 190.892 263.029,190.670 262.971,190.127 262.971 C 189.584 262.971,189.362 263.029,189.633 263.100 " stroke="none" fill="#7c7c7c" fill-rule="evenodd"></path></g></svg>