<?xml version="1.0" standalone="no"?>
<!DOCTYPE svg PUBLIC "-//W3C//DTD SVG 20010904//EN"
 "http://www.w3.org/TR/2001/REC-SVG-20010904/DTD/svg10.dtd">
<svg version="1.0" xmlns="http://www.w3.org/2000/svg"
 width="30px" height="30px" viewBox="0 0 512.000000 512.000000"
 preserveAspectRatio="xMidYMid meet">

<g transform="translate(0.000000,512.000000) scale(0.100000,-0.100000)"
fill="#000000" stroke="none">
<path d="M613 4646 c-103 -33 -166 -91 -207 -190 l-21 -51 -3 -1930 c-2 -1062
0 -1945 3 -1962 6 -36 35 -57 64 -48 10 3 276 226 592 495 l574 490 1440 2
1440 3 50 23 c63 29 119 83 153 147 l27 50 3 1364 c3 1517 7 1413 -65 1505
-25 32 -56 56 -102 79 l-66 32 -1920 2 c-1568 1 -1928 -1 -1962 -11z m2148
-636 c18 -10 19 -28 19 -606 l0 -594 -27 -11 c-41 -15 -388 -8 -405 9 -20 20
-19 1172 1 1195 12 15 39 17 203 17 111 0 197 -4 209 -10z m7 -1482 c9 -9 12
-69 12 -209 0 -171 -2 -198 -17 -210 -12 -11 -60 -14 -205 -14 -248 0 -230
-19 -226 237 2 155 6 190 18 198 23 15 403 13 418 -2z"/>
</g>
</svg>
