<?xml version="1.0" encoding="iso-8859-1"?>
<!-- Generator: Adobe Illustrator 17.1.0, SVG Export Plug-In . SVG Version: 6.00 Build 0)  -->
<!DOCTYPE svg PUBLIC "-//W3C//DTD SVG 1.1//EN" "http://www.w3.org/Graphics/SVG/1.1/DTD/svg11.dtd">
<svg version="1.1" id="Capa_1" xmlns="http://www.w3.org/2000/svg" xmlns:xlink="http://www.w3.org/1999/xlink" x="0px" y="0px"
width="24px"
height="24px"
	 viewBox="0 0 212.113 212.113" style="enable-background:new 0 0 212.113 212.113;" xml:space="preserve">
<path d="M212.113,32.923v138.101c0,3.439-1.768,6.638-4.68,8.468c-1.62,1.018-3.467,1.532-5.321,1.532
	c-1.479,0-2.963-0.328-4.339-0.99l-87.04-41.924c-1.819,1.886-4.367,3.064-7.194,3.064H70.703l12.121,27.795
	c2.208,5.062-0.106,10.955-5.169,13.163l-14.27,6.224c-1.273,0.556-2.636,0.834-3.998,0.834c-1.239,0-2.479-0.23-3.655-0.691
	c-2.469-0.97-4.451-2.88-5.511-5.312L31.9,141.174h-4.745c-5.522,0-10-4.478-10-10v-7.818C7.441,121.751,0,113.316,0,103.154v-2.36
	c0-10.162,7.441-18.598,17.155-20.202v-7.818c0-5.522,4.478-10,10-10h76.385c2.827,0,5.375,1.178,7.193,3.064l87.04-41.923
	c3.101-1.492,6.748-1.287,9.66,0.542C210.346,26.286,212.113,29.484,212.113,32.923z"/>
<g>
</g>
<g>
</g>
<g>
</g>
<g>
</g>
<g>
</g>
<g>
</g>
<g>
</g>
<g>
</g>
<g>
</g>
<g>
</g>
<g>
</g>
<g>
</g>
<g>
</g>
<g>
</g>
<g>
</g>
</svg>
