<?xml version="1.0" standalone="no"?>
<!DOCTYPE svg PUBLIC "-//W3C//DTD SVG 20010904//EN"
 "http://www.w3.org/TR/2001/REC-SVG-20010904/DTD/svg10.dtd">
<svg version="1.0" xmlns="http://www.w3.org/2000/svg"
 width="32px" height="32px" viewBox="0 0 225.000000 225.000000"
 preserveAspectRatio="xMidYMid meet">

<g transform="translate(0.000000,225.000000) scale(0.100000,-0.100000)"
fill="#000000" stroke="none">
<path d="M955 2046 c-362 -71 -645 -337 -739 -696 -24 -89 -31 -259 -17 -359
54 -367 330 -676 691 -773 72 -20 108 -23 240 -22 138 1 165 4 245 28 284 85
506 282 613 542 54 130 67 204 66 369 -1 133 -4 160 -28 240 -97 323 -331 557
-651 650 -111 33 -309 43 -420 21z m363 -197 c250 -63 465 -280 534 -538 28
-105 27 -268 -1 -374 -35 -133 -92 -229 -201 -337 -108 -109 -204 -166 -337
-201 -106 -28 -268 -28 -376 0 -258 68 -470 280 -539 540 -28 106 -28 268 1
374 54 203 195 380 380 476 172 89 347 109 539 60z"/>
<path d="M997 1575 c-21 -8 -51 -24 -67 -35 -39 -28 -79 -113 -82 -175 l-3
-50 91 -3 91 -3 6 42 c8 60 36 93 80 97 48 4 76 -12 93 -53 33 -80 8 -160 -76
-240 -60 -58 -85 -102 -95 -168 l-7 -47 96 0 c90 0 96 1 96 20 0 32 28 80 83
140 69 76 97 139 97 219 0 83 -15 132 -58 181 -54 64 -101 83 -212 87 -65 2
-107 -2 -133 -12z"/>
<path d="M1030 750 l0 -90 95 0 95 0 0 90 0 90 -95 0 -95 0 0 -90z"/>
</g>
</svg>
